<svg width="64" height="64" fill="none" viewBox="0 0 64 64"><path fill="var(--icons-secondary, #454c59)" fill-rule="evenodd" d="M13 11a3 3 0 00-3 3v47a3 3 0 003 3h28a3 3 0 003-3V14a3 3 0 00-3-3H13zm-1 3a1 1 0 011-1h5v1a2 2 0 002 2h16a2 2 0 002-2v-1h3a1 1 0 011 1v47a1 1 0 01-1 1H13a1 1 0 01-1-1V14z" clip-rule="evenodd"></path><path fill="var(--icons-secondary, #454c59)" d="M18 59a1 1 0 011-1h16a1 1 0 110 2H19a1 1 0 01-1-1z"></path><path fill="var(--icons-secondary, #454c59)" d="M58 18c0 6.627-5.373 12-12 12s-12-5.373-12-12S39.373 6 46 6s12 5.373 12 12z" opacity="0.15"></path><path fill="var(--icons-bg-fill, #ffffff)" d="M58 13c0 6.627-5.373 12-12 12s-12-5.373-12-12S39.373 1 46 1s12 5.373 12 12z"></path><path fill="var(--icons-primary, #0097db)" fill-rule="evenodd" d="M46 2c-6.075 0-11 4.925-11 11s4.925 11 11 11 11-4.925 11-11S52.075 2 46 2zM33 13c0-7.18 5.82-13 13-13s13 5.82 13 13-5.82 13-13 13-13-5.82-13-13z" clip-rule="evenodd"></path><path fill="#00A5EF" d="M58 15c0 5.523-5.373 10-12 10s-12-4.477-12-10S39.373 5 46 5s12 4.477 12 10z" opacity="0.2"></path><path fill="var(--icons-primary, #0097db)" d="M45 7a1 1 0 112 0v8a1 1 0 11-2 0V7zm0 12a1 1 0 112 0 1 1 0 01-2 0z"></path></svg>