<svg width="24" height="24" viewBox="0 0 24 24" fill="currentColor"><path d="M3.8 12c0-2.9 2.4-5.2 5.2-5.2h4.2L12 8c-.3.3-.3.8 0 1.1.1.1.3.2.5.2s.4-.1.5-.3l2.5-2.5c.3-.3.3-.8 0-1.1L13 3c-.3-.3-.8-.3-1.1 0s-.2.7.1 1l1.2 1.2H9c-3.7 0-6.8 3-6.8 6.8 0 2.1.9 4 2.6 5.3.1.1.3.2.5.2s.4-.1.6-.3c.3-.3.2-.8-.1-1.1-1.3-1-2-2.5-2-4.1zm15.4-5.3c-.3-.3-.8-.2-1.1.1s-.2.8.1 1.1c1.3 1 2 2.5 2 4.1 0 2.9-2.4 5.2-5.2 5.2h-4.2L12 16c.3-.3.3-.8 0-1.1s-.8-.3-1.1 0l-2.5 2.5c-.3.3-.3.8 0 1.1L11 21c.1.1.3.2.5.2s.4-.1.5-.2c.3-.3.3-.8 0-1.1l-1.2-1.2H15c3.7 0 6.8-3 6.8-6.8 0-2-1-3.9-2.6-5.2z"></path></svg>